<svg width="24" height="24" viewBox="0 0 24 24" fill="none" xmlns="http://www.w3.org/2000/svg">
<path d="M9.36782 20.6456C9.0217 20.9436 9.00686 21.4402 9.33467 21.7549C9.66247 22.0695 10.2088 22.083 10.5549 21.785L21.7304 12.1628C22.0765 11.8648 22.0913 11.3682 21.7635 11.0535C21.4357 10.7389 20.8894 10.7254 20.5433 11.0234L9.36782 20.6456Z" fill="white"/>
<path d="M9.25824 2.35442C8.91212 2.05641 8.89728 1.55976 9.22509 1.24511C9.55289 0.930456 10.0992 0.916964 10.4453 1.21497L21.6208 10.8372C21.9669 11.1352 21.9818 11.6318 21.654 11.9465C21.3262 12.2611 20.7798 12.2746 20.4337 11.9766L9.25824 2.35442Z" fill="white"/>
<path d="M1.07894 10.484C0.483059 10.484 -4.33754e-07 10.9231 -4.57433e-07 11.4648C-4.81112e-07 12.0066 0.483059 12.4457 1.07894 12.4457L20.4999 12.4457C21.0958 12.4457 21.5789 12.0066 21.5789 11.4648C21.5789 10.9231 21.0958 10.484 20.4999 10.484L1.07894 10.484Z" fill="white"/>
</svg>
